<svg width="24" height="24" viewBox="0 0 24 24" fill="none" xmlns="http://www.w3.org/2000/svg">
<rect opacity="0.01" width="24" height="24" fill="#FF2E2E"/>
<path fill-rule="evenodd" clip-rule="evenodd" d="M19 9C16.7909 9 15 7.20914 15 5V2C15 1.44772 15.4477 1 16 1C16.5128 1 16.9355 1.38604 16.9933 1.88338L17 2V5C17 6.05436 17.8159 6.91817 18.8507 6.99451L19 7H22L22.1166 7.00673C22.614 7.06449 23 7.48716 23 8C23 8.51284 22.614 8.93551 22.1166 8.99327L22 9H19ZM7.00673 22.1166C7.06449 22.614 7.48716 23 8 23C8.51284 23 8.93551 22.614 8.99327 22.1166L9 22V19C9 16.7909 7.20914 15 5 15H2L1.88338 15.0067C1.38604 15.0645 1 15.4872 1 16C1 16.5523 1.44772 17 2 17H5L5.14926 17.0055C6.18412 17.0818 7 17.9456 7 19V22.001L7.00673 22.1166ZM15.0067 22.1166C15.0645 22.614 15.4872 23 16 23C16.5128 23 16.9355 22.614 16.9933 22.1166L17 22.001V19L17.0055 18.8507C17.0818 17.8159 17.9456 17 19 17H22L22.1166 16.9933C22.614 16.9355 23 16.5128 23 16C23 15.4872 22.614 15.0645 22.1166 15.0067L22 15H19C16.7909 15 15 16.7909 15 19V22L15.0067 22.1166ZM8 1C7.44772 1 7 1.44772 7 2V5L6.99451 5.14926C6.91817 6.18412 6.05436 7 5 7H2L1.88338 7.00673C1.38604 7.06449 1 7.48716 1 8C1 8.55228 1.44772 9 2 9H5C7.20914 9 9 7.20914 9 5V2L8.99327 1.88338C8.93551 1.38604 8.51284 1 8 1Z" fill="white"/>
</svg>
